<svg baseProfile="basic" xmlns="http://www.w3.org/2000/svg" width="670.8" height="208.4" xml:space="preserve"><path d="M322 131c0 25.3-20.5 45.8-45.8 45.8s-45.8-20.5-45.8-45.8V44.2h-31.6V131c0 42.7 34.6 77.3 77.3 77.3s77.3-34.6 77.3-77.3V44.2H322V131zM423 129.4V0h-31.6v129.4c0 42.7 34.6 77.3 77.3 77.3v-31.6c-25.2.1-45.7-20.4-45.7-45.7zM589.4 110.8c20.6-14.9 34-39.2 34-66.6h-31.6c0 30.5-24.7 55.2-55.2 55.2h-4.7V0h-31.6v205.2h31.6V131h20.5c30.5 0 55.2 24.7 55.2 55.2v18.9h31.6v-18.9c.1-33.8-20.5-62.9-49.8-75.4zM86.8 41C65.4 41 46 49.7 31.6 63.9V0H0v205.2h31.6v-19.7c14.4 14.1 33.9 22.8 55.2 22.8 44.5 0 80.5-37.5 80.5-83.7S131.3 41 86.8 41zm-3.1 135.8c-28.8 0-52.1-23.3-52.1-52.1s23.3-52.1 52.1-52.1 52.1 23.3 52.1 52.1c-.1 28.8-23.4 52.1-52.1 52.1z"/><g><path d="M639.3 0h13.5v2.7h-5.2v11.6h-3.1V2.7h-5.2V0zM667.7 14.3V6h-.1l-4 6.7h-.9l-4-6.7h-.1v8.3h-3V0h3l4.7 7.8L668 0h2.9v14.3h-3.2z"/></g></svg>